<svg xmlns="http://www.w3.org/2000/svg" xmlns:xlink="http://www.w3.org/1999/xlink" xmlns:inkscape="http://www.inkscape.org/namespaces/inkscape" version="1.1" width="606" height="262" viewBox="0 0 606 262">
<defs>
<clipPath id="clip_0">
<path transform="matrix(1,0,0,-1,0,262)" d="M0 .1818175H605.8909V262.00004H0Z"/>
</clipPath>
</defs>
<g clip-path="url(#clip_0)">
<path transform="matrix(1,0,0,-1,0,262)" d="M0 262H605.8909V.1818175H0Z" fill="#ffffff"/>
</g>
<path transform="matrix(.00007874016,0,0,.00007874016,111.7636,196.16362)" stroke-width="19050" stroke-linecap="butt" stroke-miterlimit="8" stroke-linejoin="miter" fill="none" stroke="#042433" d="M0 111763C0 50038.01 50037.97 0 111762.9 0H1401154C1462879 0 1512917 50038.01 1512917 111763V558797C1512917 620522 1462879 670560 1401154 670560H111762.9C50037.97 670560 0 620522 0 558797Z"/>
<text xml:space="preserve" transform="matrix(.2181818 0 -0 .2181818 136.5397 490.47273)" font-size="91.99999" font-family="Avenir"><tspan y="-1200" x="0 42.531599 93.5272 141.1188 185.2144 236.20999 287.2056">Teacher</tspan></text>
<path transform="matrix(.00007874016,0,0,.00007874016,375.3272,196.16362)" stroke-width="19050" stroke-linecap="butt" stroke-miterlimit="8" stroke-linejoin="miter" fill="none" stroke="#042433" d="M0 111763C0 50038.01 50037.97 0 111762.9 0H1401154C1462879 0 1512917 50038.01 1512917 111763V558797C1512917 620522 1462879 670560 1401154 670560H111762.9C50037.97 670560 0 620522 0 558797Z"/>
<text xml:space="preserve" transform="matrix(.2181818 0 -0 .2181818 399.8202 490.47273)" font-size="91.99999" font-family="Avenir"><tspan y="-1200" x="0 50.9864 81.3648 132.3512 188.48958 239.47599 290.46238">Student</tspan></text>
<path transform="matrix(1,0,0,-1,0,262)" d="M230.8909 40.18638 370.5213 40.1863V38.6863L230.8909 38.68638ZM369.5214 42.43631 375.5214 39.4363 369.5214 36.43631Z"/>
<text xml:space="preserve" transform="matrix(.2181818 0 -0 .2181818 264.25 509.2363)" font-size="72.99999" font-family="Avenir"><tspan y="-1200" x="0 51.559904 92.242809 116.28171 140.3206 158.0815 193.58139 234.2643 252.02519 292.7081">Curriculum</tspan></text>
<path transform="matrix(1,0,0,-1,0,262)" d="M1.145427 235.8713C1.145427 249.6893 12.3471 260.8909 26.16506 260.8909H222.8894C236.7074 260.8909 247.9091 249.6893 247.9091 235.8713V135.796C247.9091 121.9781 236.7074 110.7764 222.8894 110.7764H26.16506C12.3471 110.7764 1.145427 121.9781 1.145427 135.796Z" fill="#f3f3f4" fill-rule="evenodd"/>
<path transform="matrix(.00007874016,0,0,.00007874016,1.145427,1.1091004)" stroke-width="19050" stroke-linecap="butt" stroke-miterlimit="8" stroke-linejoin="miter" fill="none" stroke="#042433" d="M0 317749.3C0 142261.2 142261.2 0 317749.3 0H2816149C2991637 0 3133898 142261.2 3133898 317749.3V1588705C3133898 1764193 2991637 1906455 2816149 1906455H317749.3C142261.2 1906455 0 1764193 0 1588705Z"/>
<text xml:space="preserve" transform="matrix(.2181818 0 -0 .2181818 95.93214 293.23637)" font-size="91.99999" font-family="Avenir"><tspan y="-1200" x="0 42.531599 90.12321 129.0668 173.1624 198.39801">Task A</tspan></text>
<path transform="matrix(.00007874016,0,0,.00007874016,7.25456,46.054597)" stroke-width="19050" stroke-linecap="butt" stroke-miterlimit="8" stroke-linejoin="miter" fill="none" stroke="#042433" d="M0 48029C0 21503.32 21503.19 0 48028.72 0H2933469C2959995 0 2981498 21503.32 2981498 48029V240145C2981498 266670.7 2959995 288174 2933469 288174H48028.72C21503.19 288174 0 266670.7 0 240145Z"/>
<text xml:space="preserve" transform="matrix(.2181818 0 -0 .2181818 85.51222 323.7818)" font-size="68.99999" font-family="Avenir"><tspan y="-1200" x="0 33.202798 56.124597 91.67339 108.31619 146.69399 179.89679 202.81859 243.47339 266.39518 299.59797 318.51777">Trajectory 1</tspan></text>
<path transform="matrix(.00007874016,0,0,.00007874016,7.25456,110.8546)" stroke-width="19050" stroke-linecap="butt" stroke-miterlimit="8" stroke-linejoin="miter" fill="none" stroke="#042433" d="M0 48029C0 21503.32 21503.19 0 48028.72 0H2933469C2959995 0 2981498 21503.32 2981498 48029V240145C2981498 266670.7 2959995 288174 2933469 288174H48028.72C21503.19 288174 0 266670.7 0 240145Z"/>
<text xml:space="preserve" transform="matrix(.2181818 0 -0 .2181818 83.88727 388.5818)" font-size="68.99999" font-family="Avenir"><tspan y="-1200" x="0 33.202798 56.124597 91.67339 108.31619 146.69399 179.89679 202.81859 243.47339 266.39518 299.59797 318.51777">Trajectory N</tspan></text>
<path transform="matrix(1,0,0,-1,0,262)" d="M121.4728 184.7455C121.4728 186.3722 122.7915 187.6909 124.4182 187.6909 126.0449 187.6909 127.3636 186.3722 127.3636 184.7455 127.3636 183.1187 126.0449 181.8 124.4182 181.8 122.7915 181.8 121.4728 183.1187 121.4728 184.7455Z" fill="#0d0d0d" fill-rule="evenodd"/>
<path transform="matrix(1,0,0,-1,0,262)" d="M121.4728 172.3091C121.4728 173.9358 122.7915 175.2546 124.4182 175.2546 126.0449 175.2546 127.3636 173.9358 127.3636 172.3091 127.3636 170.6824 126.0449 169.3636 124.4182 169.3636 122.7915 169.3636 121.4728 170.6824 121.4728 172.3091Z" fill="#0d0d0d" fill-rule="evenodd"/>
<path transform="matrix(1,0,0,-1,0,262)" d="M121.4728 159.7636C121.4728 161.3301 122.7915 162.6 124.4182 162.6 126.0449 162.6 127.3636 161.3301 127.3636 159.7636 127.3636 158.1971 126.0449 156.9272 124.4182 156.9272 122.7915 156.9272 121.4728 158.1971 121.4728 159.7636Z" fill="#0d0d0d" fill-rule="evenodd"/>
<path transform="matrix(1,0,0,-1,0,262)" d="M358.309 235.8713C358.309 249.6893 369.5107 260.8909 383.3287 260.8909H580.0531C593.8711 260.8909 605.0727 249.6893 605.0727 235.8713V135.7958C605.0727 121.9778 593.8711 110.7761 580.0531 110.7761H383.3287C369.5107 110.7761 358.309 121.9778 358.309 135.7958Z" fill="#f3f3f4" fill-rule="evenodd"/>
<path transform="matrix(.00007874016,0,0,.00007874016,358.309,1.1091004)" stroke-width="19050" stroke-linecap="butt" stroke-miterlimit="8" stroke-linejoin="miter" fill="none" stroke="#042433" d="M0 317749.8C0 142261.5 142261.3 0 317749.4 0H2816150C2991638 0 3133899 142261.5 3133899 317749.8V1588708C3133899 1764197 2991638 1906458 2816150 1906458H317749.4C142261.3 1906458 0 1764197 0 1588708Z"/>
<text xml:space="preserve" transform="matrix(.2181818 0 -0 .2181818 454.4749 293.23637)" font-size="91.99999" font-family="Avenir"><tspan y="-1200" x="0 42.531599 90.12321 129.0668">Task</tspan></text>
<text xml:space="preserve" transform="matrix(.2181818 0 -0 .2181818 497.2549 293.23637)" font-size="82.99999" font-family="Avenir"><tspan y="-1200" x="0">B</tspan></text>
<path transform="matrix(.00007874016,0,0,.00007874016,364.2,46.054597)" stroke-width="19050" stroke-linecap="butt" stroke-miterlimit="8" stroke-linejoin="miter" fill="none" stroke="#042433" d="M0 48029C0 21503.32 21503.19 0 48028.72 0H2933469C2959995 0 2981498 21503.32 2981498 48029V240145C2981498 266670.7 2959995 288174 2933469 288174H48028.72C21503.19 288174 0 266670.7 0 240145Z"/>
<text xml:space="preserve" transform="matrix(.2181818 0 -0 .2181818 442.6175 323.7818)" font-size="68.99999" font-family="Avenir"><tspan y="-1200" x="0 33.202798 56.124597 91.67339 108.31619 146.69399 179.89679 202.81859 243.47339 266.39518 299.59797 318.51777">Trajectory 1</tspan></text>
<path transform="matrix(.00007874016,0,0,.00007874016,364.2,110.8546)" stroke-width="19050" stroke-linecap="butt" stroke-miterlimit="8" stroke-linejoin="miter" fill="none" stroke="#042433" d="M0 48029C0 21503.32 21503.19 0 48028.72 0H2933469C2959995 0 2981498 21503.32 2981498 48029V240145C2981498 266670.7 2959995 288174 2933469 288174H48028.72C21503.19 288174 0 266670.7 0 240145Z"/>
<text xml:space="preserve" transform="matrix(.2181818 0 -0 .2181818 442.055 388.5818)" font-size="68.99999" font-family="Avenir"><tspan y="-1200" x="0 33.202798 56.124597 91.67339 108.31619 146.69399 179.89679 202.81859 243.47339 266.39518 299.59797 318.51777">Trajectory K</tspan></text>
<path transform="matrix(1,0,0,-1,0,262)" d="M478.6364 184.7455C478.6364 186.3722 479.9551 187.6909 481.5818 187.6909 483.2085 187.6909 484.5272 186.3722 484.5272 184.7455 484.5272 183.1187 483.2085 181.8 481.5818 181.8 479.9551 181.8 478.6364 183.1187 478.6364 184.7455Z" fill="#0d0d0d" fill-rule="evenodd"/>
<path transform="matrix(1,0,0,-1,0,262)" d="M478.6364 172.3091C478.6364 173.9358 479.9551 175.2546 481.5818 175.2546 483.2085 175.2546 484.5272 173.9358 484.5272 172.3091 484.5272 170.6824 483.2085 169.3636 481.5818 169.3636 479.9551 169.3636 478.6364 170.6824 478.6364 172.3091Z" fill="#0d0d0d" fill-rule="evenodd"/>
<path transform="matrix(1,0,0,-1,0,262)" d="M478.6364 159.7636C478.6364 161.3301 479.9551 162.6 481.5818 162.6 483.2085 162.6 484.5272 161.3301 484.5272 159.7636 484.5272 158.1971 483.2085 156.9272 481.5818 156.9272 479.9551 156.9272 478.6364 158.1971 478.6364 159.7636Z" fill="#0d0d0d" fill-rule="evenodd"/>
<path transform="matrix(1,0,0,-1,0,262)" d="M252.9089 186.5864H254.4089V185.0864H252.9089ZM255.9089 186.5864H257.4089V185.0864H255.9089ZM258.9089 186.5864H260.4089V185.0864H258.9089ZM261.9089 186.5864H263.4089V185.0864H261.9089ZM264.9089 186.5864H266.4089V185.0864H264.9089ZM267.9089 186.5864H269.4089V185.0864H267.9089ZM270.9089 186.5864H272.4089V185.0864H270.9089ZM273.9089 186.5864H275.4089V185.0864H273.9089ZM276.9089 186.5864H278.4089V185.0864H276.9089ZM279.9089 186.5864H281.4089V185.0864H279.9089ZM282.9089 186.5864H284.4089V185.0864H282.9089ZM285.9089 186.5864H287.4089V185.0864H285.9089ZM288.9089 186.5864H290.4089V185.0864H288.9089ZM291.9089 186.5863H293.4089V185.0863H291.9089ZM294.9089 186.5863H296.4089V185.0863H294.9089ZM297.9089 186.5863H299.4089V185.0863H297.9089ZM300.9089 186.5863H302.4089V185.0863H300.9089ZM303.9089 186.5863H305.4089V185.0863H303.9089ZM306.9089 186.5863H308.4089V185.0863H306.9089ZM309.9089 186.5863H311.4089V185.0863H309.9089ZM312.9089 186.5863H314.4089V185.0863H312.9089ZM315.9089 186.5863H317.4089V185.0863H315.9089ZM318.9089 186.5863H320.4089V185.0863H318.9089ZM321.9089 186.5863H323.4089V185.0863H321.9089ZM324.9089 186.5863H326.4089V185.0863H324.9089ZM327.9089 186.5863H329.4089V185.0863H327.9089ZM330.9089 186.5863H332.4089V185.0863H330.9089ZM333.9089 186.5863H335.4089V185.0863H333.9089ZM336.9089 186.5863H338.4089V185.0863H336.9089ZM339.9089 186.5863H341.4089V185.0863H339.9089ZM342.9089 186.5863H344.4089V185.0863H342.9089ZM345.9089 186.5863H347.4089V185.0863H345.9089ZM348.9089 186.5863H350.4089V185.0863H348.9089ZM351.9089 186.5863H353.392V185.0863H351.9089ZM253.909 182.8364 247.909 185.8364 253.909 188.8364ZM352.392 188.8363 358.392 185.8363 352.392 182.8363Z"/>
<text xml:space="preserve" transform="matrix(.2181818 0 -0 .2181818 279.2834 360)" font-size="72.99999" font-family="Avenir"><tspan y="-1200" x="0 51.559904 89.395809 130.0787 161.5636 199.3995">Causal</tspan></text>
<text xml:space="preserve" transform="matrix(.2181818 0 -0 .2181818 266.3834 379.2)" font-size="72.99999" font-family="Avenir"><tspan y="-1200" x="0 54.4288 72.2116 92.6224 114.42019 155.125 177.8718 218.5766 259.2814 294.8032">Difference</tspan></text>
<path transform="matrix(1,0,0,-1,0,262)" d="M303.859 135.6631 304.8217 51.35329 303.3218 51.33616 302.3591 135.646ZM307.0602 52.37884 304.1289 46.34497 301.0606 52.31032Z"/>
</svg>
